<svg xmlns="http://www.w3.org/2000/svg" xmlns:xlink="http://www.w3.org/1999/xlink" viewBox="0 0 573.98 193.72"><defs><style>.cls-1{fill:url(#linear-gradient);}.cls-2{fill:url(#linear-gradient-2);}.cls-3{fill:url(#linear-gradient-3);}.cls-4{fill:url(#linear-gradient-4);}.cls-5{fill:url(#Degradado_sin_nombre_53);}.cls-6{fill:url(#Degradado_sin_nombre_138);}.cls-7{fill:url(#linear-gradient-5);}.cls-8{fill:url(#linear-gradient-6);}.cls-9{fill:url(#linear-gradient-7);}.cls-10{fill:url(#linear-gradient-8);}.cls-11{fill:url(#linear-gradient-9);}.cls-12{fill:url(#linear-gradient-10);}.cls-13{fill:url(#linear-gradient-11);}.cls-14{fill:url(#linear-gradient-12);}.cls-15{fill:url(#linear-gradient-13);}.cls-16{fill:url(#linear-gradient-14);}.cls-17{fill:url(#linear-gradient-15);}.cls-18{fill:url(#linear-gradient-16);}</style><linearGradient id="linear-gradient" x1="23.62" y1="96.86" x2="176.08" y2="96.86" gradientUnits="userSpaceOnUse"><stop offset="0" stop-color="#da1c5c"/><stop offset="1" stop-color="#262262"/></linearGradient><linearGradient id="linear-gradient-2" x1="107.82" y1="84.31" x2="147.58" y2="62.98" gradientUnits="userSpaceOnUse"><stop offset="0" stop-color="#fff" stop-opacity="0"/><stop offset="1" stop-color="#fff" stop-opacity="0.4"/></linearGradient><linearGradient id="linear-gradient-3" x1="118.36" y1="33.39" x2="118.36" y2="43.52" xlink:href="#linear-gradient-2"/><linearGradient id="linear-gradient-4" x1="59.28" y1="135.07" x2="94.91" y2="155.43" xlink:href="#linear-gradient-2"/><linearGradient id="Degradado_sin_nombre_53" x1="186.86" y1="136.58" x2="550.36" y2="136.58" gradientUnits="userSpaceOnUse"><stop offset="0" stop-color="#da1c5c" stop-opacity="0"/><stop offset="1" stop-color="#262262"/></linearGradient><linearGradient id="Degradado_sin_nombre_138" x1="188.14" y1="63.73" x2="547.79" y2="63.73" gradientUnits="userSpaceOnUse"><stop offset="0" stop-color="#262262"/><stop offset="1" stop-color="#da1c5c" stop-opacity="0"/></linearGradient><linearGradient id="linear-gradient-5" x1="204.63" y1="78.65" x2="204.63" y2="121.22" xlink:href="#linear-gradient"/><linearGradient id="linear-gradient-6" x1="239.52" y1="90.39" x2="239.52" y2="121.66" xlink:href="#linear-gradient"/><linearGradient id="linear-gradient-7" x1="272.19" y1="90.39" x2="272.19" y2="121.66" xlink:href="#linear-gradient"/><linearGradient id="linear-gradient-8" x1="303.71" y1="90.39" x2="303.71" y2="121.66" xlink:href="#linear-gradient"/><linearGradient id="linear-gradient-9" x1="328.81" y1="81.99" x2="328.81" y2="121.37" xlink:href="#linear-gradient"/><linearGradient id="linear-gradient-10" x1="355.4" y1="90.39" x2="355.4" y2="121.66" xlink:href="#linear-gradient"/><linearGradient id="linear-gradient-11" x1="386.32" y1="90.39" x2="386.32" y2="121.22" xlink:href="#linear-gradient"/><linearGradient id="linear-gradient-12" x1="417.07" y1="78.65" x2="417.07" y2="121.22" xlink:href="#linear-gradient"/><linearGradient id="linear-gradient-13" x1="445.62" y1="78.65" x2="445.62" y2="121.37" xlink:href="#linear-gradient"/><linearGradient id="linear-gradient-14" x1="469.32" y1="90.39" x2="469.32" y2="121.66" xlink:href="#linear-gradient"/><linearGradient id="linear-gradient-15" x1="501.54" y1="90.39" x2="501.54" y2="121.66" xlink:href="#linear-gradient"/><linearGradient id="linear-gradient-16" x1="533.57" y1="78.65" x2="533.57" y2="121.22" xlink:href="#linear-gradient"/></defs><g id="Capa_3" data-name="Capa 3"><polyline class="cls-1" points="99.85 85.1 54.16 58.72 99.85 32.35 125.23 47 145.6 35.25 99.85 8.84 23.61 52.85 23.61 64.53 89.67 102.74 89.67 155.49 43.98 129.12 43.98 99.8 23.61 88.04 23.61 140.87 99.85 184.88 109.97 179.04 110.03 102.74 155.72 76.36 155.72 129.12 130.33 143.77 130.33 167.28 176.08 140.87 176.08 52.85 165.96 47 99.85 85.1"/><polygon class="cls-2" points="111.48 86.78 171.77 52.04 165.96 48.68 105.67 83.43 111.48 86.78"/><polygon class="cls-3" points="125.23 45.32 131.05 41.97 111.48 30.67 105.66 34.03 125.23 45.32"/><polygon class="cls-4" points="36.7 140.03 36.7 97.28 25.07 90.56 25.07 140.03 99.85 183.2 105.66 179.84 36.7 140.03"/><path class="cls-5" d="M547.79,138.58H189.43a2.06,2.06,0,1,1,0-4H547.79a2.06,2.06,0,1,1,0,4Z"/><path class="cls-6" d="M546.08,65.73H189.86a2,2,0,0,1,0-4H546.08a2,2,0,0,1,0,4Z"/><path class="cls-7" d="M215.66,101.24a9.53,9.53,0,0,0-4.45-1.83,9.74,9.74,0,0,0,4.32-1.83,8.54,8.54,0,0,0,2.59-3.28,10.15,10.15,0,0,0,.85-4.11A12.87,12.87,0,0,0,217.59,84a9.33,9.33,0,0,0-4.16-4,15.19,15.19,0,0,0-6.91-1.41H189.75v42.57H207a14.6,14.6,0,0,0,6.62-1.43,10.28,10.28,0,0,0,4.36-4.07,12,12,0,0,0,1.52-6.09v-.09a11.1,11.1,0,0,0-1-4.68A9.59,9.59,0,0,0,215.66,101.24Zm-10.22-17c2.5,0,4.37.52,5.62,1.58a5.88,5.88,0,0,1,1.87,4.77,6,6,0,0,1-1.68,4.6,7.15,7.15,0,0,1-5,1.55H195.69V84.19Zm8.05,24.91a6,6,0,0,1-2.08,4.86c-1.38,1.15-3.59,1.73-6.61,1.73h-9.11V102.08h10.57a8.93,8.93,0,0,1,4.13.83,5.13,5.13,0,0,1,2.35,2.39,8.44,8.44,0,0,1,.75,3.71Z"/><path class="cls-8" d="M246.28,91.93a15.61,15.61,0,0,0-13.52,0,10.16,10.16,0,0,0-4.29,4.48,15.54,15.54,0,0,0-1.48,7.07v5a15.88,15.88,0,0,0,1.48,7.16,10.15,10.15,0,0,0,4.29,4.52,15.52,15.52,0,0,0,13.52,0,10.29,10.29,0,0,0,4.29-4.49,15.64,15.64,0,0,0,1.48-7.1v-5a15.54,15.54,0,0,0-1.48-7.07A10.27,10.27,0,0,0,246.28,91.93Zm-.2,16.59a8.06,8.06,0,0,1-1.72,5.5,7,7,0,0,1-9.69,0,8.1,8.1,0,0,1-1.71-5.5v-5A8,8,0,0,1,234.67,98a7,7,0,0,1,9.69,0,7.92,7.92,0,0,1,1.72,5.47Z"/><path class="cls-9" d="M279,91.93a15.63,15.63,0,0,0-13.53,0,10.21,10.21,0,0,0-4.29,4.48,15.54,15.54,0,0,0-1.48,7.07v5a15.88,15.88,0,0,0,1.48,7.16,10.2,10.2,0,0,0,4.29,4.52,15.54,15.54,0,0,0,13.53,0,10.22,10.22,0,0,0,4.28-4.49,15.64,15.64,0,0,0,1.48-7.1v-5a15.54,15.54,0,0,0-1.48-7.07A10.19,10.19,0,0,0,279,91.93Zm-.21,16.59A8.1,8.1,0,0,1,277,114a7,7,0,0,1-9.69,0,8.06,8.06,0,0,1-1.72-5.5v-5A7.92,7.92,0,0,1,267.35,98,7,7,0,0,1,277,98a8,8,0,0,1,1.71,5.47Z"/><path class="cls-10" d="M311.41,103.86A26,26,0,0,0,306,103a.57.57,0,0,0-.18,0h-.17l-.4,0a2,2,0,0,1-.36,0c-1.62-.09-2.87-.21-3.75-.35a4.92,4.92,0,0,1-2.18-.82,2.1,2.1,0,0,1-.87-1.84,3.51,3.51,0,0,1,1.53-3.12,8.13,8.13,0,0,1,4.56-1,13.89,13.89,0,0,1,4.32.73,19.78,19.78,0,0,1,4.49,2.2l3.61-4.36a20,20,0,0,0-3.78-2.18,20.51,20.51,0,0,0-4.11-1.31,22.9,22.9,0,0,0-4.53-.44,17.38,17.38,0,0,0-6.53,1.07,8,8,0,0,0-3.92,3.21,10,10,0,0,0-1.32,5.36,7.81,7.81,0,0,0,1.37,4.94,6.71,6.71,0,0,0,3.41,2.36,23.13,23.13,0,0,0,5,.86l.24,0h.23l.5,0h.5c1.73.14,3.08.29,4,.46a5.42,5.42,0,0,1,2.4,1,2.57,2.57,0,0,1,1,2.19,3.63,3.63,0,0,1-1.77,3.3A10.27,10.27,0,0,1,304,116.3a13.36,13.36,0,0,1-4.8-.93,20.16,20.16,0,0,1-4.89-2.81l-3.55,4.36a17.43,17.43,0,0,0,3.78,2.63,18.07,18.07,0,0,0,4.41,1.58,22.55,22.55,0,0,0,5,.53,20.09,20.09,0,0,0,7.1-1.08,8.48,8.48,0,0,0,4.23-3.24,9.78,9.78,0,0,0,1.4-5.43,8.6,8.6,0,0,0-1.52-5.5A7.31,7.31,0,0,0,311.41,103.86Z"/><path class="cls-11" d="M331.07,82h-6v8.84H322v5.39h3.14v17.1c0,2.65.57,4.66,1.71,6s2.94,2,5.4,2h3.46v-5.68H332.8a1.49,1.49,0,0,1-1.29-.6,2.81,2.81,0,0,1-.44-1.71V96.22h4.6V90.83h-4.6Z"/><path class="cls-12" d="M362.28,92.3a11,11,0,0,0-6.5-1.91,13.55,13.55,0,0,0-6.91,1.67,10.86,10.86,0,0,0-4.38,4.86,18,18,0,0,0-1.51,7.7v3.43a16.1,16.1,0,0,0,1.57,7.39,10.52,10.52,0,0,0,4.55,4.64,15.29,15.29,0,0,0,7.21,1.58,14.46,14.46,0,0,0,5.65-1.18,16.44,16.44,0,0,0,5.06-3.36l-3.92-3.92a10.43,10.43,0,0,1-3.19,2,9.38,9.38,0,0,1-3.6.73,7.55,7.55,0,0,1-5.65-2,7.79,7.79,0,0,1-2-5.53h19.14v-2a23.48,23.48,0,0,0-1.42-8.64A11.81,11.81,0,0,0,362.28,92.3Zm-13.6,11.33A9.13,9.13,0,0,1,350.52,98a6.45,6.45,0,0,1,5.26-2.23,5.4,5.4,0,0,1,4.43,2.06,10.17,10.17,0,0,1,1.92,5.79Z"/><path class="cls-13" d="M389.92,90.39A8.61,8.61,0,0,0,385,91.9a10.83,10.83,0,0,0-3,3.18V90.83h-6v30.39h6V102a5.85,5.85,0,0,1,1.57-4.35A6,6,0,0,1,388,96.07a7.26,7.26,0,0,1,2.78.5,5,5,0,0,1,2,1.47l3.89-5.27A8.46,8.46,0,0,0,393.68,91,11.15,11.15,0,0,0,389.92,90.39Z"/><path class="cls-14" d="M428.09,101.24a9.49,9.49,0,0,0-4.45-1.83A9.64,9.64,0,0,0,428,97.58a8.44,8.44,0,0,0,2.59-3.28,10,10,0,0,0,.85-4.11A13,13,0,0,0,430,84a9.38,9.38,0,0,0-4.16-4A15.21,15.21,0,0,0,419,78.65H402.18v42.57h17.28a14.53,14.53,0,0,0,6.61-1.43,10.25,10.25,0,0,0,4.37-4.07,12,12,0,0,0,1.52-6.09v-.09a11,11,0,0,0-1-4.68A9.5,9.5,0,0,0,428.09,101.24Zm-10.21-17c2.5,0,4.37.52,5.62,1.58a5.88,5.88,0,0,1,1.87,4.77,6,6,0,0,1-1.68,4.6,7.15,7.15,0,0,1-5,1.55H408.13V84.19Zm8.05,24.91a6,6,0,0,1-2.08,4.86c-1.39,1.15-3.59,1.73-6.62,1.73h-9.1V102.08H418.7a8.86,8.86,0,0,1,4.12.83,5.15,5.15,0,0,1,2.36,2.39,8.44,8.44,0,0,1,.75,3.71Z"/><path class="cls-15" d="M446.76,115.09a2.68,2.68,0,0,1-.48-1.71V78.65h-6v34.67a8.67,8.67,0,0,0,1.86,5.94,6.63,6.63,0,0,0,5.26,2.11h3.51v-5.68h-2.81A1.64,1.64,0,0,1,446.76,115.09Z"/><path class="cls-16" d="M476.08,91.93a15.63,15.63,0,0,0-13.53,0,10.27,10.27,0,0,0-4.29,4.48,15.67,15.67,0,0,0-1.47,7.07v5a16,16,0,0,0,1.47,7.16,10.26,10.26,0,0,0,4.29,4.52,15.54,15.54,0,0,0,13.53,0,10.29,10.29,0,0,0,4.29-4.49,15.77,15.77,0,0,0,1.48-7.1v-5a15.67,15.67,0,0,0-1.48-7.07A10.27,10.27,0,0,0,476.08,91.93Zm-.21,16.59a8.1,8.1,0,0,1-1.71,5.5,7,7,0,0,1-9.69,0,8.1,8.1,0,0,1-1.71-5.5v-5A8,8,0,0,1,464.47,98a7,7,0,0,1,9.69,0,8,8,0,0,1,1.71,5.47Z"/><path class="cls-17" d="M497.34,98a7.15,7.15,0,0,1,5.35-1.94,8.65,8.65,0,0,1,3.6.79,8.88,8.88,0,0,1,3,2.26l4.3-3.87a10.27,10.27,0,0,0-2.78-2.63A13.64,13.64,0,0,0,507.07,91a17,17,0,0,0-4.47-.57,15.18,15.18,0,0,0-7.09,1.54A10.44,10.44,0,0,0,491,96.4a14.92,14.92,0,0,0-1.55,7v5A15.24,15.24,0,0,0,491,115.6a10.48,10.48,0,0,0,4.5,4.51,14.94,14.94,0,0,0,7.09,1.55,17.26,17.26,0,0,0,4.44-.55,13.17,13.17,0,0,0,3.76-1.63,10.56,10.56,0,0,0,2.81-2.59l-4.3-4.16a8.73,8.73,0,0,1-3,2.4,8.07,8.07,0,0,1-3.63.85,7.1,7.1,0,0,1-5.37-2,7.69,7.69,0,0,1-1.89-5.56v-5A7.4,7.4,0,0,1,497.34,98Z"/><polygon class="cls-18" points="540.43 121.22 546.93 121.22 535.26 102.29 545.44 90.83 538.41 90.83 526.17 105.59 526.17 78.65 520.2 78.65 520.2 121.22 526.17 121.22 526.17 112.52 531.53 106.49 540.43 121.22"/></g></svg>